<svg width="46" height="35" viewBox="0 0 46 35" fill="none" xmlns="http://www.w3.org/2000/svg">
<path fill-rule="evenodd" clip-rule="evenodd" d="M0.629102 0.0958873C0.507577 0.160773 0.316251 0.351279 0.204033 0.519134L0 0.82452V17.493V34.1615L0.204033 34.4669C0.535497 34.9629 0.683869 34.9978 2.46093 34.9978C4.23798 34.9978 4.38636 34.9629 4.71782 34.4669C4.92087 34.163 4.92185 34.1464 4.92185 30.8809V27.6004H5.44321C5.8724 27.6004 5.99884 27.5635 6.15912 27.3916C6.65667 26.8574 6.21388 26.2467 5.32902 26.2467H4.92185V24.1711V22.0955H22.909H40.8961V24.1711V26.2467H24.8285C10.9018 26.2467 8.72725 26.2643 8.50783 26.3787C8.08616 26.5987 8.01179 27.0833 8.3505 27.4042L8.55767 27.6004H24.7269H40.8961V30.8809C40.8961 35.2312 40.7566 34.9978 43.357 34.9978C45.1341 34.9978 45.2825 34.9629 45.6139 34.4669L45.818 34.1615V25.9537C45.818 16.88 45.846 17.3215 45.2493 16.9974C44.8175 16.7629 43.242 16.8355 42.7118 17.1144C42.5046 17.2234 42.3182 17.3125 42.2976 17.3125C42.2769 17.3125 42.2425 16.8151 42.2209 16.207C42.1866 15.2384 42.1518 15.0385 41.9397 14.5923C41.6462 13.9749 41.0578 13.4084 40.3749 13.0855L39.867 12.8454L36.6339 12.8178L33.4009 12.7901L33.1514 13.0065C32.8295 13.2857 32.8081 13.7446 33.1056 13.9876C33.2945 14.1418 33.5268 14.154 36.275 14.1545C39.4222 14.155 39.7426 14.1894 40.2571 14.581C40.8553 15.0365 40.8919 15.2414 40.8942 18.1476L40.8961 20.7424L28.8376 20.7196L16.779 20.6967V18.0796V15.4625L17.0018 15.0701C17.1391 14.8284 17.3796 14.5859 17.6282 14.4384L18.0319 14.1991L24.4152 14.154C30.6034 14.1102 30.8024 14.1035 30.9254 13.9337C31.1363 13.6427 31.0854 13.2006 30.8166 12.9874C30.5813 12.8007 30.5611 12.8003 20.6646 12.8003H10.7485L10.9737 12.3042C11.3554 11.4633 11.3692 10.1875 11.0006 9.81575C10.7419 9.55485 10.2588 9.58517 10.0315 9.87657C9.87708 10.0746 9.85677 10.1926 9.90214 10.6301C9.99458 11.5219 9.62231 12.2692 8.91339 12.6153C7.97886 13.0715 6.81265 12.6607 6.40977 11.7334C6.18954 11.2265 4.92302 6.38827 4.92239 6.05166C4.91997 4.73815 6.43036 3.82515 7.60471 4.43014C8.22692 4.75069 8.45538 5.12439 8.79213 6.37211C8.95652 6.98117 9.1593 7.55982 9.24279 7.6581C9.56907 8.04245 10.3806 7.77298 10.3806 7.28033C10.3806 6.9467 9.83476 5.01601 9.619 4.58627C9.36118 4.07296 8.6247 3.37203 8.07336 3.11528C7.73357 2.957 7.48551 2.91864 6.80111 2.91864C6.06945 2.91855 5.8809 2.95167 5.44795 3.15644L4.94485 3.39432L4.8976 2.86838C4.80158 1.80133 4.08737 0.74673 3.14587 0.282242C2.7174 0.0707996 2.50827 0.0295577 1.74618 0.00573316C1.13256 -0.0133987 0.780427 0.0150284 0.629102 0.0958873ZM2.5974 1.54232C2.83016 1.661 3.10748 1.9079 3.26516 2.13667L3.53479 2.52797L3.55787 18.0874L3.58105 33.6468H2.46164H1.34232V17.493V1.33927H1.77079C2.03756 1.33927 2.34951 1.41589 2.5974 1.54232ZM5.37815 12.6794C5.48294 12.8504 5.554 13.0033 5.5361 13.0192C5.5182 13.0351 5.37261 13.1152 5.21269 13.1973L4.92185 13.3464L4.92812 12.5094C4.93438 11.6809 4.93581 11.6759 5.06101 12.0203C5.13063 12.2118 5.27336 12.5084 5.37815 12.6794ZM12.3494 14.1876C12.3494 14.2061 12.2588 14.4193 12.148 14.6614C11.9566 15.0799 11.9444 15.2393 11.9019 17.8991L11.8572 20.6967L8.38952 20.7203L4.92185 20.7439L4.92382 18.1484C4.92561 15.8085 4.94226 15.5161 5.09304 15.1813C5.28312 14.7593 5.71445 14.3919 6.17469 14.26C6.46123 14.1779 12.3494 14.1089 12.3494 14.1876ZM15.673 14.718C15.4393 15.2783 15.4376 15.2998 15.408 18.0119L15.3782 20.7418H14.3112H13.2443V18.1158C13.2443 15.2501 13.2588 15.155 13.7752 14.6561C14.1229 14.3201 14.6096 14.1626 15.3145 14.1579L15.9081 14.154L15.673 14.718ZM44.4757 25.9309V33.6468H43.357H42.2384L42.2404 26.6303C42.2423 20.0016 42.2515 19.5938 42.4076 19.2528C42.7139 18.5834 43.2796 18.2164 44.0058 18.2155L44.4757 18.215V25.9309Z" fill="#1A3658"/>
</svg>
