<svg width="1512" height="431" viewBox="0 0 1512 431" fill="none" xmlns="http://www.w3.org/2000/svg">
<rect y="116" width="1525" height="315" fill="#BEEAF4"/>
<path d="M-14 219.137C-14 219.137 417.637 192.761 435.256 259.542C452.872 326.329 151.167 308.908 210.627 345.087C270.089 381.262 -14 396 -14 396V219.137Z" fill="#D7F2F8"/>
<path d="M986.164 271.782C1086.77 336.241 1610.13 240.344 1474.34 379.5C1459.8 394.397 1489.68 403.877 1539 409V201C1301.25 202.41 894.722 213.194 986.164 271.782Z" fill="#D7F2F8"/>
<path d="M-14 0.114666C-14 0.114666 112.93 -3.21208 313.698 25.9723C641.52 73.6247 992.967 80.1352 1327.88 43.8206C1404.05 35.563 1473.88 32.4121 1533.22 40.4594C1533.22 88.6114 1546.23 159.539 1533.22 165.397C1520.2 171.253 -14 165.397 -14 165.397V0.114666" fill="white"/>
</svg>
