<svg width="70" height="50" viewBox="0 0 70 50" fill="none" xmlns="http://www.w3.org/2000/svg">
<path fill-rule="evenodd" clip-rule="evenodd" d="M0 28.1434V50.0002H6.88004C16.2545 50.0002 18.563 49.6719 22.3671 47.798C26.7384 45.6445 28.9156 42.328 28.9156 37.8225C28.9156 32.4755 26.1616 28.7253 21.116 27.2016L19.865 26.8237L20.8609 26.2899C23.4543 24.8996 25.196 23.2233 26.2435 21.1096C26.9228 19.7385 26.9587 19.5881 27.0158 17.8694C27.1274 14.5053 26.2525 12.2774 23.8948 9.92318C22.7698 8.7999 22.2124 8.39508 20.9085 7.75434C19.3124 6.96988 17.1282 6.28084 16.9146 6.49447C16.853 6.55621 16.983 6.93008 17.2034 7.32554C17.5314 7.91304 17.7598 8.09674 18.455 8.33146C22.8911 9.82929 25.5253 13.1935 25.5428 17.3834C25.5496 19.0216 25.2421 20.068 24.3645 21.3928C23.1966 23.1555 20.5721 24.9857 17.7453 26.0086L16.3109 26.5275H10.5368H4.76257V27.2829V28.0383L11.9489 28.0995C18.1308 28.1523 19.278 28.2021 20.1559 28.4552C23.9239 29.5417 26.2782 31.7897 27.1259 35.1104C27.4601 36.4194 27.4591 39.0973 27.124 40.3841C26.2275 43.8264 23.074 46.4506 18.333 47.6999C15.84 48.3568 14.2841 48.4694 7.70107 48.4694H1.53083V28.1434V7.81745H7.05881C10.0992 7.81745 12.5868 7.77611 12.5868 7.7256C12.5868 7.67508 12.4322 7.33064 12.2432 6.96018L11.8995 6.28662H5.94981H0V28.1434ZM40.9921 28.1434V49.1497H41.7575H42.5229V37.8585C42.5229 26.8642 42.5316 26.565 42.8497 26.4818C43.0295 26.4347 43.3372 26.0814 43.5336 25.6965L43.8906 24.9967H43.2067H42.5229V16.0669V7.13708H41.7575H40.9921V28.1434ZM68.3769 16.0669V24.9967H58.515H48.6532L48.3095 25.6703C48.1205 26.0407 47.9659 26.3852 47.9659 26.4357C47.9659 26.4862 52.5583 26.5275 58.1714 26.5275H68.3769V37.8386V49.1497H69.1423H69.9077V28.1434V7.13708H69.1423H68.3769V16.0669ZM23.9998 25.9792L23.434 26.4515L24.7184 27.2363L26.0028 28.0211L25.3807 26.7641C25.0387 26.0727 24.7154 25.507 24.6621 25.507C24.6089 25.507 24.3109 25.7194 23.9998 25.9792Z" fill="#39558F"/>
<path fill-rule="evenodd" clip-rule="evenodd" d="M11.1107 0.283886L10.5702 0.553314L16.0012 11.414C18.9882 17.3875 21.4941 22.2749 21.57 22.2749C21.646 22.2749 21.9187 22.0551 22.1759 21.7865L22.6438 21.2982L17.3182 10.6455C14.3892 4.78655 11.9159 -0.00220884 11.822 0.00374438C11.7281 0.00969759 11.408 0.135736 11.1107 0.283886ZM50.8994 14.0258L43.8837 28.0585L43.893 29.7167L43.9024 31.3748L51.6138 15.9815L59.3251 0.58818L58.7908 0.297662C58.4969 0.137776 58.1797 0.00391393 58.0858 1.81765e-06C57.9921 -0.00391029 54.7581 6.30769 50.8994 14.0258ZM23.9998 25.9788L23.434 26.4511L24.7184 27.2359L26.0028 28.0208L25.3807 26.7638C25.0387 26.0723 24.7153 25.5066 24.6621 25.5066C24.6089 25.5066 24.3109 25.7191 23.9998 25.9788ZM30.3614 38.5783V40.2196L32.6158 44.6845C33.8556 47.1403 34.9077 49.1494 34.9538 49.1494C34.9999 49.1494 36.0329 47.1598 37.2494 44.7282L39.4613 40.3072L39.4521 38.6474L39.4429 36.9878L37.1968 41.4548L34.9506 45.9215L32.7409 41.4833C31.5258 39.0424 30.4932 37.0208 30.4464 36.9912C30.3996 36.9616 30.3614 37.6758 30.3614 38.5783Z" fill="#E83424"/>
</svg>
