<svg width="288" height="238" viewBox="0 0 288 238" fill="none" xmlns="http://www.w3.org/2000/svg">
<path d="M127.022 151.912C167.369 85.8221 109.67 91.9793 109.67 91.9793C109.67 91.9793 121.067 32.2632 91.7318 51.3155C64.4774 -14.1649 -2.83861 10.086 44.5269 95.9843C32.2266 84.5271 -33.0689 73.6085 29.757 140.979C-0.467523 160.611 66.1706 204.517 66.1706 204.517L114.69 213.69C170.693 177.314 147.816 155.844 127.022 151.912Z" fill="#ADD0F0"/>
<path d="M55.0481 45.995L97.2042 216.606" stroke="white" stroke-width="1.33333" stroke-miterlimit="10"/>
<path d="M29.3603 115.256L79.0684 142.542" stroke="white" stroke-width="1.33333" stroke-miterlimit="10"/>
<path d="M51.8985 178.362L86.6767 192.317" stroke="white" stroke-width="1.33333" stroke-miterlimit="10"/>
<path d="M95.4243 68.3393L71.6717 101.422" stroke="white" stroke-width="1.33333" stroke-miterlimit="10"/>
<path d="M117.856 118.799L82.3522 165.072" stroke="white" stroke-width="1.33333" stroke-miterlimit="10"/>
<path d="M244.822 170.927C270.164 155.492 219.837 111.801 197.366 152.381C198.72 110.737 115.648 109.432 139.504 151.517C85.7803 148.691 134.253 203.708 134.253 203.708L249.688 224.296C312.014 217.246 280.492 160.097 244.822 170.927" fill="#63CDF3"/>
<path d="M163.843 137.977L198.341 201.123L226.934 159.049" stroke="white" stroke-width="1.33333" stroke-miterlimit="10"/>
<path d="M137.615 170.775L181.719 173.481" stroke="white" stroke-width="1.33333" stroke-miterlimit="10"/>
<path d="M253.251 181.587L211.583 178.538" stroke="white" stroke-width="1.33333" stroke-miterlimit="10"/>
</svg>
