<svg width="335" height="222" viewBox="0 0 335 222" fill="none" xmlns="http://www.w3.org/2000/svg">
<path d="M262.326 106.895C294.767 40.102 216.523 9.5669 205.075 76.3599C160.217 52.6998 172.632 118.345 172.632 118.345C172.632 118.345 136.372 78.2684 113.471 118.345C90.572 158.42 163.09 191.72 163.09 191.72L285.088 191.871C378.054 138.438 323.393 63.0031 262.326 106.895Z" fill="#5C86CD"/>
<path d="M184.632 106.343L194.545 156.082" stroke="white" stroke-width="1.33333" stroke-miterlimit="10"/>
<path d="M149.584 125.645L220.545 173.687L236.423 79.7251" stroke="white" stroke-width="1.33333" stroke-miterlimit="10"/>
<path d="M295.616 126.706L225.165 146.362" stroke="white" stroke-width="1.33333" stroke-miterlimit="10"/>
<path d="M137.002 85.0621C168.423 43.981 162.309 11.1621 129.921 39.9819C129.399 -7.59839 59.6144 34.9235 75.4603 112.911C3.18082 134.968 66.4846 220.078 66.4846 220.078L132.532 176.198C198.188 114.287 187.809 51.4195 137.002 85.0621Z" fill="white"/>
<path fill-rule="evenodd" clip-rule="evenodd" d="M129.089 40.9947C161.477 12.1749 167.591 44.9938 136.17 86.0748C186.977 52.4323 197.356 115.3 131.7 177.21L101.883 197.02L104.726 152.299L107.751 153.284L107.948 152.309L104.791 151.281L105.649 137.791L140.596 115.732L140.087 114.95L105.722 136.642L109.757 73.1804L127.025 57.6964L126.447 56.9423L109.843 71.8305L110.824 56.4092L109.968 56.2934L108.927 72.6515L98.6049 81.9074L99.1835 82.6615L108.842 74.0014L103.945 151.005L70.0135 139.954L69.817 140.929L103.881 152.024L100.981 197.619L65.6529 221.091C65.6529 221.091 2.34908 135.98 74.6286 113.924C58.7827 35.9363 128.567 -6.58563 129.089 40.9947Z" fill="#9DDFF1"/>
</svg>
