<svg width="70" height="50" viewBox="0 0 70 50" fill="none" xmlns="http://www.w3.org/2000/svg">
<path fill-rule="evenodd" clip-rule="evenodd" d="M0 3C0 1.34315 1.34315 0 3 0H67C68.6569 0 70 1.34315 70 3V7C70 8.65685 68.6569 10 67 10H3C1.34315 10 0 8.65685 0 7V3ZM0 23C0 21.3431 1.34315 20 3 20H67C68.6569 20 70 21.3431 70 23V27C70 28.6569 68.6569 30 67 30H3C1.34315 30 0 28.6569 0 27V23ZM3 40C1.34315 40 0 41.3431 0 43V47C0 48.6569 1.34315 50 3 50H67C68.6569 50 70 48.6569 70 47V43C70 41.3431 68.6569 40 67 40H3Z" fill="#2C2D2C"/>
</svg>
