<svg width="26" height="25" viewBox="0 0 26 25" fill="none" xmlns="http://www.w3.org/2000/svg">
<path fill-rule="evenodd" clip-rule="evenodd" d="M13 25C19.9036 25 25.5 19.4036 25.5 12.5C25.5 5.59644 19.9036 0 13 0C6.09644 0 0.5 5.59644 0.5 12.5C0.5 19.4036 6.09644 25 13 25ZM16.3571 5H10.3571C9.25839 5 8.20464 5.43648 7.4277 6.21342C6.65076 6.99035 6.21429 8.0441 6.21429 9.14286V15.1429C6.21429 17.4286 8.07143 19.2857 10.3571 19.2857H16.3571C17.4559 19.2857 18.5096 18.8492 19.2866 18.0723C20.0635 17.2954 20.5 16.2416 20.5 15.1429V9.14286C20.5 6.85714 18.6429 5 16.3571 5ZM8.39601 7.18173C8.87825 6.69949 9.5323 6.42857 10.2143 6.42857H16.5C17.9214 6.42857 19.0714 7.57857 19.0714 9V15.2857C19.0714 15.9677 18.8005 16.6218 18.3183 17.104C17.836 17.5862 17.182 17.8571 16.5 17.8571H10.2143C8.79286 17.8571 7.64286 16.7071 7.64286 15.2857V9C7.64286 8.31801 7.91377 7.66396 8.39601 7.18173ZM17.7385 7.76151C17.571 7.59407 17.3439 7.5 17.1071 7.5C16.8703 7.5 16.6432 7.59407 16.4758 7.76151C16.3084 7.92896 16.2143 8.15606 16.2143 8.39286C16.2143 8.62966 16.3084 8.85676 16.4758 9.0242C16.6432 9.19165 16.8703 9.28571 17.1071 9.28571C17.3439 9.28571 17.571 9.19165 17.7385 9.0242C17.9059 8.85676 18 8.62966 18 8.39286C18 8.15606 17.9059 7.92896 17.7385 7.76151ZM15.8825 9.61748C15.2128 8.9477 14.3043 8.57143 13.3571 8.57143C12.4099 8.57143 11.5015 8.9477 10.8318 9.61748C10.162 10.2872 9.78572 11.1957 9.78572 12.1429C9.78572 13.0901 10.162 13.9985 10.8318 14.6682C11.5015 15.338 12.4099 15.7143 13.3571 15.7143C14.3043 15.7143 15.2128 15.338 15.8825 14.6682C16.5523 13.9985 16.9286 13.0901 16.9286 12.1429C16.9286 11.1957 16.5523 10.2872 15.8825 9.61748ZM11.8419 10.6276C12.2438 10.2258 12.7888 10 13.3571 10C13.9255 10 14.4705 10.2258 14.8724 10.6276C15.2742 11.0295 15.5 11.5745 15.5 12.1429C15.5 12.7112 15.2742 13.2562 14.8724 13.6581C14.4705 14.0599 13.9255 14.2857 13.3571 14.2857C12.7888 14.2857 12.2438 14.0599 11.8419 13.6581C11.4401 13.2562 11.2143 12.7112 11.2143 12.1429C11.2143 11.5745 11.4401 11.0295 11.8419 10.6276Z" fill="#121144"/>
</svg>
