<svg width="25" height="25" viewBox="0 0 25 25" fill="none" xmlns="http://www.w3.org/2000/svg">
<path fill-rule="evenodd" clip-rule="evenodd" d="M12.5 25C19.4036 25 25 19.4036 25 12.5C25 5.59644 19.4036 0 12.5 0C5.59644 0 3.8147e-06 5.59644 3.8147e-06 12.5C3.8147e-06 19.4036 5.59644 25 12.5 25ZM15.8571 5H9.85715C8.75839 5 7.70464 5.43648 6.9277 6.21341C6.15077 6.99035 5.71429 8.0441 5.71429 9.14286V15.1429C5.71429 17.4286 7.57143 19.2857 9.85715 19.2857H15.8571C16.9559 19.2857 18.0097 18.8492 18.7866 18.0723C19.5635 17.2954 20 16.2416 20 15.1429V9.14286C20 6.85714 18.1429 5 15.8571 5ZM7.89602 7.18173C8.37825 6.69949 9.0323 6.42857 9.71429 6.42857H16C17.4214 6.42857 18.5714 7.57857 18.5714 9V15.2857C18.5714 15.9677 18.3005 16.6218 17.8183 17.104C17.336 17.5862 16.682 17.8571 16 17.8571H9.71429C8.29286 17.8571 7.14286 16.7071 7.14286 15.2857V9C7.14286 8.31802 7.41378 7.66396 7.89602 7.18173ZM17.2385 7.76151C17.0711 7.59407 16.8439 7.5 16.6071 7.5C16.3703 7.5 16.1432 7.59407 15.9758 7.76151C15.8084 7.92896 15.7143 8.15606 15.7143 8.39286C15.7143 8.62966 15.8084 8.85676 15.9758 9.0242C16.1432 9.19165 16.3703 9.28571 16.6071 9.28571C16.8439 9.28571 17.0711 9.19165 17.2385 9.0242C17.4059 8.85676 17.5 8.62966 17.5 8.39286C17.5 8.15606 17.4059 7.92896 17.2385 7.76151ZM15.3825 9.61748C14.7128 8.9477 13.8043 8.57143 12.8571 8.57143C11.9099 8.57143 11.0015 8.9477 10.3318 9.61748C9.66199 10.2872 9.28572 11.1957 9.28572 12.1429C9.28572 13.0901 9.66199 13.9985 10.3318 14.6682C11.0015 15.338 11.9099 15.7143 12.8571 15.7143C13.8043 15.7143 14.7128 15.338 15.3825 14.6682C16.0523 13.9985 16.4286 13.0901 16.4286 12.1429C16.4286 11.1957 16.0523 10.2872 15.3825 9.61748ZM11.3419 10.6276C11.7438 10.2258 12.2888 10 12.8571 10C13.4255 10 13.9705 10.2258 14.3724 10.6276C14.7742 11.0295 15 11.5745 15 12.1429C15 12.7112 14.7742 13.2562 14.3724 13.6581C13.9705 14.0599 13.4255 14.2857 12.8571 14.2857C12.2888 14.2857 11.7438 14.0599 11.3419 13.6581C10.9401 13.2562 10.7143 12.7112 10.7143 12.1429C10.7143 11.5745 10.9401 11.0295 11.3419 10.6276Z" fill="white"/>
</svg>
