<svg width="26" height="25" viewBox="0 0 26 25" fill="none" xmlns="http://www.w3.org/2000/svg">
<path d="M13 0C6.09635 0 0.5 5.59635 0.5 12.5C0.5 19.4036 6.09635 25 13 25C19.9036 25 25.5 19.4036 25.5 12.5C25.5 5.59635 19.9036 0 13 0ZM9.9401 17.681H7.40885V9.53516H9.9401V17.681ZM8.65885 8.53516C7.85937 8.53516 7.34245 7.96875 7.34245 7.26823C7.34245 6.55338 7.875 6.00391 8.69141 6.00391C9.50781 6.00391 10.0078 6.55338 10.0234 7.26823C10.0234 7.96875 9.50781 8.53516 8.65885 8.53516ZM19.1849 17.681H16.6536V13.1667C16.6536 12.1159 16.2865 11.4023 15.3711 11.4023C14.6719 11.4023 14.2565 11.8854 14.0729 12.3503C14.0052 12.5156 13.9883 12.75 13.9883 12.9831V17.6797H11.4557V12.1328C11.4557 11.1159 11.4232 10.2656 11.3893 9.53385H13.5885L13.7044 10.6654H13.7552C14.0885 10.1341 14.9049 9.35026 16.2708 9.35026C17.9362 9.35026 19.1849 10.4661 19.1849 12.8646V17.681Z" fill="#121144"/>
</svg>
