<svg width="195" height="73" viewBox="0 0 195 73" fill="none" xmlns="http://www.w3.org/2000/svg">
<path fill-rule="evenodd" clip-rule="evenodd" d="M135.015 69.8114V72.666H178.284C180.788 69.1854 179.111 64.2275 173.953 63.4513C170.597 63.4513 171.323 63.4012 167.016 63.4513C156.174 63.4513 154.497 63.5514 150.315 62.9505C147.185 62.4497 143.654 61.6985 139.297 60.146C133.713 58.1679 128.58 55.0379 123.948 51.3319C120.793 48.8029 118.013 45.8983 114.533 41.341C114.282 40.9904 114.082 40.4896 112.73 40.4896C111.253 40.4896 108.849 40.4646 106.27 40.4896C89.9435 40.4896 73.6174 40.4896 57.2914 40.4896C56.7906 40.4896 56.1145 40.8402 56.3148 41.6164C57.066 44.471 59.6201 47.576 62.4496 49.4039C66.2807 52.0831 69.9616 51.9329 74.2184 51.9329C85.0857 51.8828 93.1236 51.8828 106.545 51.8828C109.825 51.8578 109.024 51.7326 111.152 53.7608C117.212 59.9457 125.55 66.4561 135.015 69.8114Z" fill="white"/>
<path fill-rule="evenodd" clip-rule="evenodd" d="M31.5503 21.8344C33.3782 25.9409 37.7352 31.4998 45.773 31.4998C68.2589 31.4748 86.9387 31.4748 108.874 31.4998C108.047 29.4716 107.246 27.4183 106.645 25.5653C105.969 23.487 105.543 21.6841 105.293 20.6074C93.8998 20.6074 40.6649 20.6074 32.4517 20.6074C31.5002 20.6074 31.4251 21.2835 31.5503 21.8344Z" fill="#E67F25"/>
<path fill-rule="evenodd" clip-rule="evenodd" d="M0.0250189 1.15184C1.12678 4.78263 4.23173 7.61215 7.31165 9.64038C11.1177 11.4433 12.9957 11.3932 17.2525 11.4933C49.9547 11.5184 66.6063 11.5184 113.807 11.5184C114.458 20.6329 116.887 27.9947 121.494 34.4299C123.497 37.2344 125.676 40.0389 128.555 42.593C131.209 44.9467 135.641 48.1018 138.947 49.479C146.909 52.7592 154.622 52.1332 163.586 52.1332C173.777 52.1332 183.893 52.1332 194.06 52.1332C194.06 45.1721 194.911 37.61 191.581 31.4001C189.002 26.6175 184.544 22.1604 179.386 20.4576C175.18 19.0554 173.777 19.3308 169.37 19.3308C157.977 19.3308 146.559 19.3308 135.166 19.3308C135.341 19.8316 136.493 22.2104 138.095 24.414C139.272 26.0165 140.7 27.5189 141.876 28.4454C142.502 28.9462 143.103 29.2967 143.829 29.5972C145.432 30.2232 148.111 30.7741 150.44 30.7741C156.199 30.7741 161.232 30.7991 166.966 30.7741C168.644 30.7741 172.125 30.7741 174.654 30.7741C175.154 30.7741 175.655 30.7741 175.956 30.8492C181.94 30.9494 182.366 37.2094 182.867 40.715C175.43 40.715 166.34 40.74 158.578 40.74C152.118 40.74 143.855 41.391 136.468 36.5583C136.292 36.4331 136.117 36.2829 135.942 36.1577C133.162 33.9291 131.084 31.4251 129.306 28.846C125.35 23.0117 123.672 16.6516 123.447 10.7672C123.297 6.86095 123.823 3.30527 124.699 0.0751199C83.6835 0.02504 41.366 0 0.751178 0C0.250378 0.02504 -0.100181 0.550879 0.0250189 1.15184Z" fill="white"/>
</svg>
