<svg width="18" height="22" viewBox="0 0 18 22" fill="none" xmlns="http://www.w3.org/2000/svg">
<path d="M9.35682 0C7.0653 0.00259957 4.86838 0.914054 3.24803 2.5344C1.62768 4.15475 0.716223 6.35167 0.713623 8.64319C0.713623 16.039 8.57107 21.6276 8.90501 21.8633C9.03884 21.9525 9.19603 22 9.35682 22C9.5176 22 9.67479 21.9525 9.80862 21.8633C10.1426 21.6276 18 16.039 18 8.64319C17.9974 6.35167 17.086 4.15475 15.4656 2.5344C13.8453 0.914054 11.6483 0.00259957 9.35682 0ZM9.35682 5.50021C9.97844 5.50021 10.5861 5.68455 11.103 6.0299C11.6198 6.37526 12.0227 6.86612 12.2605 7.44043C12.4984 8.01473 12.5607 8.64668 12.4394 9.25636C12.3181 9.86604 12.0188 10.4261 11.5792 10.8656C11.1397 11.3052 10.5797 11.6045 9.96998 11.7258C9.3603 11.8471 8.72835 11.7848 8.15405 11.5469C7.57975 11.309 7.08888 10.9062 6.74352 10.3893C6.39817 9.87248 6.21384 9.26482 6.21384 8.64319C6.21384 7.80962 6.54497 7.01019 7.13439 6.42077C7.72382 5.83135 8.52325 5.50021 9.35682 5.50021Z" fill="#121144"/>
</svg>
