<svg width="18" height="19" viewBox="0 0 18 19" fill="none" xmlns="http://www.w3.org/2000/svg">
<path d="M1.05 18.5C0.75 18.5 0.5 18.4 0.3 18.2C0.0999999 18 0 17.75 0 17.45V13.4C0 13.1667 0.0749999 12.9623 0.225 12.787C0.375 12.6123 0.566667 12.5 0.8 12.45L4.25 11.75C4.48333 11.7167 4.721 11.7373 4.963 11.812C5.20433 11.8873 5.4 12 5.55 12.15L7.9 14.5C9.16667 13.7333 10.325 12.825 11.375 11.775C12.425 10.725 13.3 9.6 14 8.4L11.6 5.95C11.45 5.8 11.354 5.629 11.312 5.437C11.2707 5.24567 11.2667 5.03333 11.3 4.8L11.95 1.3C11.9833 1.06667 12.0917 0.875 12.275 0.725C12.4583 0.575 12.6667 0.5 12.9 0.5H16.95C17.25 0.5 17.5 0.6 17.7 0.8C17.9 1 18 1.25 18 1.55C18 3.7 17.5207 5.79567 16.562 7.837C15.604 9.879 14.3373 11.6873 12.762 13.262C11.1873 14.8373 9.37933 16.104 7.338 17.062C5.296 18.0207 3.2 18.5 1.05 18.5Z" fill="#121144"/>
</svg>
