<svg width="12" height="13" viewBox="0 0 12 13" fill="none" xmlns="http://www.w3.org/2000/svg">
<path d="M8.79406 8.23889H8.23834L8.04137 8.04896C8.48099 7.53824 8.80228 6.93666 8.98226 6.28727C9.16224 5.63788 9.19646 4.95673 9.08247 4.29257C8.75185 2.337 7.11986 0.775356 5.15022 0.536185C4.45776 0.448582 3.75444 0.520548 3.09407 0.746577C2.4337 0.972606 1.8338 1.34671 1.34025 1.84025C0.846706 2.3338 0.472606 2.9337 0.246577 3.59407C0.0205485 4.25444 -0.0514179 4.95776 0.0361849 5.65022C0.275356 7.61986 1.837 9.25185 3.79257 9.58247C4.45673 9.69646 5.13788 9.66224 5.78727 9.48226C6.43666 9.30228 7.03824 8.98099 7.54896 8.54137L7.73889 8.73834V9.29406L10.7285 12.2837C11.0169 12.5721 11.4882 12.5721 11.7767 12.2837C12.0651 11.9953 12.0651 11.524 11.7767 11.2356L8.79406 8.23889ZM4.5734 8.23889C2.82182 8.23889 1.4079 6.82497 1.4079 5.0734C1.4079 3.32182 2.82182 1.9079 4.5734 1.9079C6.32497 1.9079 7.73889 3.32182 7.73889 5.0734C7.73889 6.82497 6.32497 8.23889 4.5734 8.23889Z" fill="white"/>
</svg>
