<svg width="772" height="792" viewBox="0 0 772 792" fill="none" xmlns="http://www.w3.org/2000/svg">
<path fill-rule="evenodd" clip-rule="evenodd" d="M243.505 1.13268C211.353 2.53968 195.151 6.35168 185 14.8987C180.712 18.5087 179.911 18.7697 168 20.4357C142.506 23.9997 136.768 25.6307 130.572 31.0707C126.466 34.6757 120.834 46.0357 119.085 54.2377C118.27 58.0597 116.745 61.3127 114.517 63.9787C112.678 66.1807 111.012 68.4627 110.817 69.0497C110.597 69.7097 96.142 71.2277 72.98 73.0247C52.366 74.6237 34.051 76.1907 32.279 76.5057C25.688 77.6797 20.832 83.8917 17.473 95.4437C16.532 98.6797 14.691 102.4 13.381 103.71C12.072 105.019 11 106.478 11 106.951C11 107.424 9.398 109.728 7.44 112.072C4.286 115.847 3.954 116.769 4.528 120.167C5.071 123.382 4.757 124.5 2.588 127.078C1.165 128.769 0 131.192 0 132.46C0 135.208 6.347 141.283 11.442 143.411C13.726 144.366 15.151 145.754 15.574 147.437C15.928 148.85 17.546 151.123 19.17 152.489C22.047 154.91 33.957 159.022 43 160.717C47.311 161.525 47.506 161.712 47.648 165.187C47.857 170.29 48.658 171.333 56.522 176.734C61.14 179.906 64.066 182.736 65.185 185.112C66.94 188.839 73.026 192.297 80.238 193.663C82.032 194.003 84.287 194.684 85.25 195.176C87.131 196.137 87.646 200.483 86 201.5C85.45 201.84 85 203.655 85 205.533C85 208.279 84.44 209.238 82.141 210.427C80.568 211.24 78.686 213.344 77.958 215.102C76.803 217.89 76.859 218.689 78.399 221.373C80.135 224.397 80.125 224.478 77.832 226.173C70.528 231.572 70.405 232.853 76.635 238.573L81.269 242.828L79.037 246.439C77.81 248.426 77.033 250.643 77.31 251.366C77.952 253.039 77.176 254.116 73.766 256.286C70.207 258.55 69.409 261.956 71.492 265.985C72.403 267.746 73.002 269.275 72.824 269.383C72.646 269.492 70.813 270.823 68.75 272.341C62.352 277.051 64.059 280.71 76.25 288.423C79.413 290.424 82.034 292.385 82.077 292.781C82.686 298.514 84.724 300.332 92.21 301.82C95.67 302.508 101.875 303.948 106 305.021C110.125 306.093 117.775 307.732 123 308.662C128.225 309.592 132.848 310.644 133.274 311.001C133.7 311.357 133.333 314.54 132.459 318.074C130.194 327.231 128.572 328.387 115.894 329.877C90.768 332.83 72.468 336.11 67.333 338.58C61.024 341.615 56.799 347.661 54.045 357.595C53.005 361.346 51.474 364.912 50.643 365.519C49.812 366.126 48.817 367.946 48.431 369.562C48.045 371.178 46.403 373.828 44.781 375.45C42.133 378.1 41.899 378.841 42.482 382.728C43.04 386.449 42.771 387.483 40.565 390.105C37.156 394.157 37.326 395.955 41.504 400.004C43.436 401.877 44.821 404.095 44.59 404.95C41.795 415.329 39.215 421.916 36.268 426.201C33.923 429.609 32.542 432.924 32.212 435.935C31.91 438.681 30.773 441.626 29.355 443.327C28.06 444.881 27.016 446.681 27.035 447.327C27.111 449.83 29.845 453.286 34.571 456.855C37.282 458.903 40.086 461.795 40.802 463.283C41.518 464.772 43.881 467.417 46.052 469.162C49.16 471.66 50 473.013 50 475.522C50 478.284 50.802 479.273 56 482.919C59.3 485.234 62 487.513 62 487.983C62 488.453 61.368 490.112 60.595 491.669C59.822 493.226 58.804 495.85 58.331 497.5C57.858 499.15 56.434 500.95 55.166 501.5C53.07 502.409 52.89 503.041 53.181 508.471C53.482 514.104 53.347 514.517 50.809 515.748C49.329 516.465 47.823 517.983 47.462 519.12C46.597 521.845 51.033 526.591 56.785 529.094C59.387 530.227 61.743 532.174 62.785 534.054C63.728 535.757 64.951 537.801 65.503 538.597C67.089 540.887 99.195 547.317 114.465 548.402C147.01 550.717 162 552.348 162 553.576C162 554.471 157.513 562.533 156.859 562.812C154.907 563.645 150.154 573.167 149.027 578.5C148.33 581.8 146.959 585.631 145.98 587.013C145.002 588.395 144.043 590.645 143.851 592.013C143.536 594.243 142.983 594.526 138.5 594.751C126.404 595.358 117.599 597.045 113.259 599.588C108.05 602.641 103 610.004 103 614.547C103 618.448 101.287 623.648 98.847 627.154C97.831 628.614 97 630.774 97 631.954C97 634.528 94.726 639.153 92.587 640.928C90.556 642.614 92.246 646 95.119 646C98.412 646 96.728 648.374 92.423 649.799C86.569 651.737 85.479 653.142 87.144 656.605C87.89 658.156 90.075 660.429 92 661.656C98.701 665.928 100.741 667.953 101.335 670.924C101.983 674.163 105.049 676.247 111 677.491C114.956 678.318 118 680.607 118 682.754C118 683.548 116.601 685.504 114.892 687.101C112.356 689.47 111.905 690.509 112.44 692.752C113.051 695.31 118.438 700.912 120.346 700.973C122.424 701.039 127.169 705.469 128.453 708.541C129.428 710.876 131.04 712.413 133.681 713.528C137.077 714.96 150.232 718.856 157 720.432C163.528 721.952 164.671 726.873 158.959 728.864C153.43 730.792 156.481 736.846 165 740.856C167.507 742.036 168.587 743.254 168.806 745.148C169.341 749.762 172.044 751.174 181.197 751.617C192.738 752.177 254.636 754.865 271 755.518C311.121 757.119 385.273 764.289 446 772.44C451.775 773.215 467.075 775.222 480 776.901C492.925 778.58 506.425 780.419 510 780.989C513.575 781.559 522.125 782.675 529 783.468C535.875 784.261 552.525 786.265 566 787.921C579.475 789.578 598.478 791.242 608.23 791.62C623.526 792.213 626.858 792.064 632.508 790.535C640.193 788.455 641.91 786.426 639.055 782.796C637.197 780.435 637.196 780.22 638.986 773.553C640.108 769.372 641.805 765.74 643.366 764.18L645.913 761.632L655.303 762.921C663.607 764.061 665.05 764.026 667.783 762.612C671.932 760.467 672.521 759.234 670.478 756.975C668.941 755.278 668.889 754.388 669.984 748.585C670.917 743.639 671.779 741.719 673.604 740.524C674.922 739.66 676 738.321 676 737.548C676 734.112 678.997 732.881 685.87 733.494C692.911 734.123 696.347 733.079 698.402 729.687C699.289 728.223 699.068 727.52 697.25 726.027C696.013 725.011 695 723.481 695 722.627C695 719.747 699.027 710.286 701.021 708.481C702.333 707.293 703 705.407 703 702.88C703 700.094 703.537 698.783 705 698C706.1 697.411 707 696.036 707 694.943C707 693.82 708.038 692.484 709.39 691.868C711.922 690.714 713.448 685.428 712.402 681.43C712.082 680.206 712.502 678.828 713.43 678.058C715.333 676.479 715.381 674.679 713.653 669.718C711.952 664.833 711.824 664.732 703.11 661.369C697.051 659.031 695.285 657.828 693.302 654.687C691.951 652.547 689.585 650.403 687.942 649.83C684.738 648.713 684.137 647.268 686.5 646.362C687.325 646.045 688 645.024 688 644.093C688 641.854 689.944 640 692.292 640C693.957 640 694.144 639.352 693.842 634.606C693.581 630.482 693.922 628.746 695.292 627.231C697.022 625.318 696.995 625.045 694.511 619.428C690.712 610.839 690.983 610.612 704.048 611.459C713.526 612.073 715.684 611.917 719.527 610.336C724.236 608.4 725.203 606.244 722.404 603.921C720.317 602.189 721.17 596.572 724.525 589.951C725.886 587.264 727 583.69 727 582.008C727 579.667 727.586 578.728 729.5 578C730.875 577.477 732 576.348 732 575.492C732 574.635 733.125 571.713 734.5 569C735.875 566.287 737 563.524 737 562.862C737 562.2 737.769 560.808 738.708 559.77C740.088 558.245 740.184 557.558 739.206 556.191C738.54 555.261 737.592 553.6 737.098 552.5C735.177 548.216 730.109 544.605 725.23 544.044C720.848 543.54 720.353 543.191 718.5 539.293C716.157 534.364 714.097 533.443 691 527C683.025 524.776 674.475 522.383 672 521.684L667.5 520.412L666.984 514.956C666.566 510.537 666.83 509.079 668.373 507.287C670.16 505.212 670.177 504.919 668.639 502.572C667.738 501.196 667 499.387 667 498.552C667 496.856 658.166 492 655.08 492C653.987 492 652.285 490.82 651.297 489.378C647.698 484.127 645.095 482 642.268 482C638.375 482 635.287 479.585 634.479 475.907C633.933 473.417 632.798 472.349 628.65 470.418C625.818 469.099 622.782 468.015 621.905 468.01C619.765 467.997 617 464.813 617 462.362C617 461.273 617.661 459.509 618.468 458.441C619.276 457.374 619.951 455.03 619.968 453.233C619.993 450.684 620.997 449.011 624.54 445.616C628.25 442.061 629.065 440.647 628.993 437.883C628.945 436.022 629.21 432.371 629.581 429.77C630.385 424.13 628.575 420.637 623.675 418.375C620.586 416.949 620.676 416.923 627 417.409C635.926 418.095 656.728 421.521 667 423.997C671.675 425.124 679.268 426.736 683.874 427.578C691.489 428.972 692.553 428.966 695.624 427.508C697.481 426.627 699 425.681 699 425.405C699 424.447 693.492 420.063 692.25 420.032C690.296 419.982 690.783 418.187 693.085 416.955C694.231 416.341 695.769 414.404 696.502 412.649C697.235 410.895 698.772 408.611 699.917 407.575C701.063 406.538 702 404.593 702 403.253C702 401.912 702.894 399.679 703.986 398.29C705.079 396.901 705.74 395.388 705.455 394.926C705.169 394.465 706.011 393.384 707.324 392.524C709.196 391.297 709.679 390.155 709.559 387.23C709.462 384.842 710.08 382.729 711.277 381.357C713.008 379.374 713.038 378.888 711.685 374.857C710.311 370.766 709.805 370.338 703.403 367.851C698.603 365.986 695.729 364.136 693.695 361.601C691.189 358.477 690.239 358 686.525 358C684.171 358 680.629 357.325 678.654 356.5C676.68 355.675 673.962 355 672.614 355C670.057 355 663.796 349.685 660.605 344.805C658.191 341.114 659.263 331.798 662.617 327.317C663.928 325.566 665 323.669 665 323.102C665 321.081 668.673 320.16 674.596 320.697C679.966 321.184 680.912 320.98 683.466 318.783L686.326 316.323L683.246 313.1L680.167 309.878L682.186 305.189C683.296 302.61 685.505 299.243 687.094 297.707C690.109 294.793 691.599 291.002 690.675 288.596C690.378 287.822 690.964 286.438 691.978 285.52C692.991 284.603 694.094 282.761 694.429 281.426C694.764 280.092 695.649 279 696.397 279C698.771 279 700.314 276.057 700.485 271.205C700.576 268.617 701.267 265.229 702.02 263.676C703.131 261.383 703.151 260.472 702.126 258.83C701.085 257.164 701.147 256.209 702.477 253.406C703.536 251.175 703.872 248.836 703.454 246.607C703.01 244.24 703.325 242.434 704.493 240.652C705.992 238.363 706.014 237.8 704.697 235.297C703.888 233.759 702.776 231.375 702.226 230C701.544 228.291 698.742 226.251 693.373 223.555C689.054 221.386 684.503 218.594 683.26 217.351C680.409 214.5 680.333 211.408 683.097 210.685C684.959 210.198 685.155 209.53 684.847 204.723C684.619 201.169 684.968 198.744 685.863 197.665C688.084 194.989 686.396 189.133 682.331 185.409C679.296 182.629 678.975 181.915 679.947 180.098C680.565 178.944 681.681 178 682.428 178C684.299 178 684.994 175.741 684.349 171.761C683.965 169.398 684.276 168.016 685.402 167.081C687.191 165.597 687.528 162.445 686 161.5C685.45 161.16 685 160.234 685 159.441C685 158.282 686.966 158 695.05 158C702.102 158 705.979 157.545 708.05 156.474C711.479 154.701 711.487 154.673 709.446 151.557C708.412 149.98 708.245 148.967 708.946 148.534C709.526 148.175 710 146.403 710 144.596C710 142.58 710.773 140.61 712 139.5C713.241 138.377 714 136.42 714 134.345C714 131.766 714.932 130.068 718.07 126.93C721.354 123.646 722.09 122.245 721.88 119.68C721.737 117.931 721.98 115.262 722.419 113.75C724.003 108.29 722.5 106.114 714.679 102.55C709.654 100.26 707.071 98.4507 706.249 96.6467C705.402 94.7887 703.839 93.7347 700.782 92.9597C695.074 91.5147 689.009 86.6187 690.75 84.8617C691.438 84.1677 692 81.7027 692 79.3827C692 75.9837 692.509 74.7957 694.626 73.2537C696.919 71.5837 697.102 71.0597 696.071 69.1317C694.516 66.2277 695.451 63.5707 698.519 62.1727C699.999 61.4987 701 60.2057 701 58.9687C701 57.5647 701.967 56.5587 704 55.8497C706.363 55.0257 707 54.2137 707 52.0237C707 50.2807 706.16 48.6467 704.75 47.6447L702.5 46.0457L706.406 42.6417L710.312 39.2377L708.572 34.8687C706.678 30.1117 704.317 27.0017 702.595 26.9957C699.901 26.9867 690.004 21.0737 687.049 17.7087C684.929 15.2937 682.924 13.9997 681.301 13.9997C679.93 13.9997 677.614 13.3647 676.154 12.5877C673.875 11.3757 669.741 10.4487 652.71 7.33368C638.167 4.67368 611.028 3.93867 493.5 3.02667C425.3 2.49668 353.75 1.59269 334.5 1.01769C295.704 -0.142312 271.958 -0.111322 243.505 1.13268ZM770.5 662C770.84 662.55 771.316 663 771.559 663C771.802 663 772 662.55 772 662C772 661.45 771.523 661 770.941 661C770.359 661 770.16 661.45 770.5 662Z" fill="black"/>
</svg>
