<svg width="18" height="18" viewBox="0 0 18 18" fill="none" xmlns="http://www.w3.org/2000/svg">
<path d="M1.05 18C0.75 18 0.5 17.9 0.3 17.7C0.0999999 17.5 0 17.25 0 16.95V12.9C0 12.6667 0.0749999 12.4623 0.225 12.287C0.375 12.1123 0.566667 12 0.8 11.95L4.25 11.25C4.48333 11.2167 4.721 11.2373 4.963 11.312C5.20433 11.3873 5.4 11.5 5.55 11.65L7.9 14C9.16667 13.2333 10.325 12.325 11.375 11.275C12.425 10.225 13.3 9.1 14 7.9L11.6 5.45C11.45 5.3 11.354 5.129 11.312 4.937C11.2707 4.74567 11.2667 4.53333 11.3 4.3L11.95 0.8C11.9833 0.566667 12.0917 0.375 12.275 0.225C12.4583 0.0749999 12.6667 0 12.9 0H16.95C17.25 0 17.5 0.0999999 17.7 0.3C17.9 0.5 18 0.75 18 1.05C18 3.2 17.5207 5.29567 16.562 7.337C15.604 9.379 14.3373 11.1873 12.762 12.762C11.1873 14.3373 9.37933 15.604 7.338 16.562C5.296 17.5207 3.2 18 1.05 18Z" fill="white"/>
</svg>
